<svg height="128" width="128" xmlns="http://www.w3.org/2000/svg"><rect x="2" y="2" width="124" height="124" rx="14" fill="#363d52" stroke="#212532" stroke-width="4"/><g transform="scale(.101) translate(122 122)"><g fill="#fff"><path d="M105 673v33q407 354 814 0v-33z"/><path fill="#478cbf" d="m105 673 152 14q12 1 15 14l4 67 132 10 8-61q2-11 15-15h162q13 4 15 15l8 61 132-10 4-67q3-13 15-14l152-14V427q30-39 56-81-35-59-83-108-43 20-82 47-40-37-88-64 7-51 8-102-59-28-123-42-26 43-46 89-49-7-98 0-20-46-46-89-64 14-123 42 1 51 8 102-48 27-88 64-39-27-82-47-48 49-83 108 26 42 56 81zm0 33v39c0 276 813 276 813 0v-39l-134 12-5 69q-2 10-14 13l-162 11q-12 0-16-11l-10-65H447l-10 65q-4 11-16 11l-162-11q-12-3-14-13l-5-69z"/><path d="M483 600c3 34 55 34 58 0v-86c-3-34-55-34-58 0z"/><path d="M398 282c31 0 59 3 86 8-8 18-13 37-15 58-7 5-12 13-15 22-46 15-87 41-121 77-17-16-35-37-51-62 9-53 37-95 116-103z"/><path d="M294 267c21 21 53 46 82 67-9 14-15 29-19 46-27 6-57 18-81 36-22-20-44-45-60-78 2-40 23-71 78-71z"/><path d="M174 204c-17 11-31 26-41 45-38 73-8 147 48 195 25-33 54-64 87-90 4-16 11-31 20-44-34-21-69-47-114-106z"/><path d="M 180 201c-44 33-68 75-57 121 8 34 22 64 42 92 55-49 105-104 154-158-17-24-36-46-58-65-37 4-71 13-81 10z"/></g></g></svg>